<svg width="74" height="74" viewBox="0 0 74 74" fill="none" xmlns="http://www.w3.org/2000/svg">
    <defs>
        <linearGradient id="paint0_linear_176_253" x1="18.9337" y1="6.69934" x2="54.2131" y2="67.8047" gradientUnits="userSpaceOnUse">
            <stop stop-color="#8D4BF6"/>
            <stop offset="0.66" stop-color="#A575A6"/>
            <stop offset="1" stop-color="#C1A563"/>
        </linearGradient>
        <linearGradient id="paint1_linear_176_253" x1="54.6493" y1="67.5531" x2="19.3699" y2="6.44689" gradientUnits="userSpaceOnUse">
            <stop stop-color="#5E3EC3"/>
            <stop offset="0.66" stop-color="#8A75A6"/>
        </linearGradient>
    </defs>
    <path d="M53.9314 53.9212C50.5844 57.2681 46.3201 59.5476 41.6788 60.4705C37.0367 61.3935 32.2253 60.9197 27.8521 59.1085C23.4788 57.2974 19.7423 54.2304 17.1125 50.2944C14.4827 46.3593 13.0795 41.7318 13.0795 36.9991C13.0795 32.2664 14.4827 27.6389 17.1125 23.7038C19.7423 19.7687 23.4798 16.7008 27.8521 14.8896C32.2244 13.0785 37.0367 12.6047 41.6788 13.5276C46.321 14.4506 50.5854 16.73 53.9314 20.077C56.1477 22.2933 59.7398 22.2933 61.9561 20.077C64.1725 17.8606 64.1725 14.2686 61.9561 12.0522C57.0222 7.11828 50.7363 3.75855 43.8924 2.39746C37.0486 1.03637 29.955 1.73521 23.509 4.40525C17.0631 7.07528 11.5529 11.5976 7.67632 17.3987C3.79979 23.2007 1.73071 30.0217 1.73071 36.9991C1.73071 43.9765 3.79979 50.7975 7.67632 56.5995C11.5529 62.4015 17.0631 66.9229 23.509 69.5929C29.955 72.263 37.0486 72.9618 43.8924 71.6007C50.7363 70.2396 57.0222 66.8799 61.9561 61.946C64.1725 59.7296 64.1725 56.1376 61.9561 53.9212C59.7398 51.7049 56.1477 51.7049 53.9314 53.9212Z" fill="url(#paint0_linear_176_253)"/>
    <path d="M37.01 52.5428C45.594 52.5428 52.5528 45.584 52.5528 37C52.5528 28.416 45.594 21.4573 37.01 21.4573C28.426 21.4573 21.4673 28.416 21.4673 37C21.4673 45.584 28.426 52.5428 37.01 52.5428Z" fill="url(#paint1_linear_176_253)"/>
</svg>
