<svg width="20" height="20" viewBox="0 0 20 20" fill="none" xmlns="http://www.w3.org/2000/svg">
<path d="M10.0001 1.66675C5.40008 1.66675 1.66675 5.40008 1.66675 10.0001C1.66675 14.6001 5.40008 18.3334 10.0001 18.3334C14.6001 18.3334 18.3334 14.6001 18.3334 10.0001C18.3334 5.40008 14.6001 1.66675 10.0001 1.66675ZM7.74175 13.5751L4.75008 10.5834C4.67293 10.5063 4.61173 10.4147 4.56998 10.3139C4.52822 10.2131 4.50673 10.105 4.50673 9.99591C4.50673 9.88681 4.52822 9.77877 4.56998 9.67796C4.61173 9.57716 4.67293 9.48557 4.75008 9.40841C4.82723 9.33126 4.91883 9.27006 5.01963 9.22831C5.12043 9.18655 5.22847 9.16506 5.33758 9.16506C5.44669 9.16506 5.55473 9.18655 5.65553 9.22831C5.75634 9.27006 5.84793 9.33126 5.92508 9.40841L8.33341 11.8084L14.0667 6.07508C14.2226 5.91927 14.4339 5.83173 14.6542 5.83173C14.8746 5.83173 15.0859 5.91927 15.2417 6.07508C15.3976 6.2309 15.4851 6.44223 15.4851 6.66258C15.4851 6.88294 15.3976 7.09427 15.2417 7.25008L8.91675 13.5751C8.83965 13.6523 8.74808 13.7136 8.64727 13.7554C8.54646 13.7973 8.43839 13.8188 8.32925 13.8188C8.22011 13.8188 8.11204 13.7973 8.01123 13.7554C7.91042 13.7136 7.81884 13.6523 7.74175 13.5751Z" fill="#8D4BF6"/>
</svg>
